# xmcd
#
# Track frame offsets:
#	150
#	16907
#	36599
#	58620
#	72055
#	91497
#	113064
#	125772
#	141755
#	158895
#	176097
#	198270
#	218655
#	239854
#	259431
#	281804
#	299886
#
# Disc length: 4543 seconds
#
# Revision: 393216
# Processed by: cddbd v1.5.2PL0 Copyright (c) Steve Scherf et al.
# Submitted via: EZCDAudioConverter 8.0.7.1
#
DISCID=1711bd11
DTITLE=Eric Church - Caught In The Act
DYEAR=2013
DGENRE=Country
TTITLE0=Before She Does [Live]
TTITLE1=How 'bout You [Live]
TTITLE2=Drink In My Hand [Live]
TTITLE3=Over When It's Over [Live]
TTITLE4=I'm Gettin' Stoned [Live]
TTITLE5=Creepin' [Live]
TTITLE6=Keep On [Live]
TTITLE7=Hungover and Hard Up [Live]
TTITLE8=Sinners Like Me [Live]
TTITLE9=Country Music Jesus [Live]
TTITLE10=Pledge Allegiance To The Hag [Live]
TTITLE11=Jack Daniels [Live]
TTITLE12=Homeboy [Live]
TTITLE13=Lotta Boot Left To Fill [Live]
TTITLE14=Smoke A Little Smoke [Live]
TTITLE15=These Boots [Live]
TTITLE16=Springsteen [Live]
EXTD=
EXTT0=
EXTT1=
EXTT2=
EXTT3=
EXTT4=
EXTT5=
EXTT6=
EXTT7=
EXTT8=
EXTT9=
EXTT10=
EXTT11=
EXTT12=
EXTT13=
EXTT14=
EXTT15=
EXTT16=
PLAYORDER=
